<svg width="50px" height="50px" viewBox="0 0 50 50" version="1.1" xmlns="http://www.w3.org/2000/svg" xmlns:xlink="http://www.w3.org/1999/xlink">
    <g id="vader-icon" stroke="none" stroke-width="1" fill="none" fill-rule="evenodd">
        <g transform="translate(1.000000, 0.000000)" fill="#FFFFFF" fill-rule="nonzero">
            <path d="M24.0000231,50 C23.9119528,50 23.8236494,49.9983618 23.7339481,49.9950855 C22.8336733,49.9616198 19.7120681,49.8123116 17.3488466,49.2906689 C14.4481164,48.6503754 12.8262703,48.232406 11.4555879,47.5897722 C10.3756774,47.0833411 10.0380744,46.3265029 9.93392766,45.8586861 C8.85192032,45.6162357 5.4479308,44.6901971 2.73266087,42.1727857 C1.56817493,41.0929923 0.889240947,40.0541535 0.499448034,39.156432 C0.494089255,39.1451987 0.489196457,39.1334975 0.48453665,39.1217962 C-0.21280357,37.4920431 0.0423209004,36.3359575 0.0595621889,36.2620055 C0.0658529292,36.2355606 0.0744735734,36.2095838 0.0851911311,36.1843091 L8.42997473,16.8280662 C8.35681575,15.9670867 8.12522331,11.1772883 11.4187754,6.32921761 C14.5170815,1.76853013 19.9988793,1.26069496 21.6621976,1.21435793 L21.6621976,0.468050849 C21.6621976,0.20968678 21.870957,0 22.1281784,0 L25.8716349,0 C26.1288563,0 26.3376157,0.20968678 26.3376157,0.468050849 L26.3376157,1.21435793 C28.000701,1.26046094 33.4824988,1.76806208 36.5815039,6.32921761 C39.874823,11.1770543 39.6432305,15.9670867 39.5700715,16.8280662 L47.9146221,36.1843091 C47.9255727,36.2093498 47.9341933,36.2353266 47.9402511,36.2620055 C47.9577254,36.3354895 48.2107529,37.4824481 47.5236643,39.101904 C47.5145777,39.1299871 47.5029281,39.157134 47.4887157,39.1831109 C47.0970589,40.0747477 46.4199888,41.1037575 45.2671524,42.1725516 C42.5518825,44.6899631 39.147893,45.6160017 38.0661186,45.8584521 C37.9622049,46.3262689 37.6243688,47.0831071 36.5444584,47.5895381 C35.17331,48.2321719 33.5516969,48.6499073 30.6511996,49.2904349 C28.2879782,49.8120776 25.16614,49.9613858 24.2658652,49.9948514 C24.1763969,49.9985958 24.0883265,50 24.0000231,50 Z M10.8160293,45.4025705 C10.8202231,45.4322918 10.821388,45.4631831 10.8197571,45.4943085 C10.8195241,45.517243 10.8169612,46.2574654 11.8495746,46.741664 C13.1410403,47.3470878 14.7162883,47.7512497 17.5487524,48.3763316 C19.835786,48.8813585 22.887727,49.0269223 23.7684307,49.0596858 C23.9243013,49.0653025 24.075512,49.0653025 24.2306836,49.0596858 C25.1118532,49.0269223 28.1635613,48.8811244 30.4505949,48.3763316 C33.283059,47.7512497 34.858307,47.3470878 36.1500057,46.741664 C37.1828521,46.2576994 37.1800562,45.517477 37.1795902,45.4861176 C37.1788912,45.4594387 37.1807551,45.4332279 37.184483,45.4074851 C37.0787054,44.8968416 36.6723701,43.0819744 35.7760561,40.6148784 C35.0151095,38.5208189 33.8944258,36.7937113 33.3331519,35.999195 C33.0964337,36.2137963 32.8003029,36.3631045 32.4729514,36.4190366 C32.1880042,36.855494 30.8271074,38.8194353 28.5482284,40.2076742 C26.087617,41.706841 24.2402362,42.323264 24.1456421,42.3543894 C24.099044,42.3698351 24.0498831,42.3780259 23.9997901,42.3780259 C23.9492312,42.3780259 23.8998373,42.3698351 23.8530062,42.3541554 C23.7467626,42.3192856 21.9035757,41.7016925 19.4511189,40.2076742 C17.1727059,38.8194353 15.8113431,36.855494 15.5268618,36.4190366 C15.1992774,36.3631045 14.9029136,36.2135622 14.6661954,35.999195 C14.1049215,36.7937113 12.9840048,38.5205849 12.2235242,40.6148784 C11.330239,43.0740176 10.9234378,44.8851403 10.8160293,45.4025705 Z M1.42605079,38.9500215 C1.7797302,39.6982008 2.37478764,40.5671372 3.36476378,41.4849849 C5.76619567,43.7115028 8.82023362,44.624202 9.96957519,44.9043304 C10.0937591,44.348754 10.3421268,43.3379982 10.7652374,42.0059255 C10.8509778,41.7108195 11.3197545,39.9160785 11.3181235,35.9755584 C11.3162596,31.6320465 10.0695281,26.8850748 10.0434331,26.7872522 C10.0425012,26.7835078 10.0415692,26.7797634 10.0406373,26.7760189 C10.0406373,26.7760189 10.0406373,26.7760189 10.0406373,26.7760189 C10.0406373,26.7757849 10.0406373,26.7755509 10.0406373,26.7753169 C10.0140764,26.6650909 10.0287547,26.5541628 10.0751198,26.4591485 C10.0751198,26.4589145 10.0753528,26.4586805 10.0753528,26.4584464 C10.0753528,26.4584464 10.0753528,26.4584464 10.0753528,26.4584464 C10.0853714,26.4378522 10.0970209,26.4181941 10.1098354,26.399472 C10.167384,26.3156909 10.2521925,26.2501638 10.3558732,26.2181023 C10.3561062,26.2181023 10.3563392,26.2181023 10.3568052,26.2178683 C10.3644939,26.2155281 10.3721826,26.2134218 10.3801042,26.2113156 C10.3805702,26.2113156 10.3808032,26.2113156 10.3808032,26.2113156 C10.3910548,26.2087413 10.4015394,26.2064011 10.4117909,26.2047629 L21.1640642,24.1692097 C21.3558153,24.1329358 21.5498963,24.2204613 21.6500821,24.3887256 C21.750268,24.5567558 21.7355896,24.769953 21.6132696,24.9227716 L15.7337573,32.2578305 C15.6489488,32.363844 15.522202,32.4274989 15.3868346,32.4321794 C15.2472734,32.4340516 15.1205266,32.382098 15.0287284,32.2821691 L11.3484123,28.2843128 C11.7319145,30.1059667 12.2484541,33.0933013 12.2498521,35.9757924 C12.2500851,36.865089 12.227485,37.6486061 12.1904395,38.3343006 C12.9826068,36.7352049 13.8197413,35.5606313 14.1463938,35.125578 C14.1147071,34.9949919 14.0979318,34.858555 14.0979318,34.7183738 C14.0979318,33.7668264 14.868664,32.9924363 15.8162359,32.9924363 C16.3006229,32.9924363 16.7386448,33.1946343 17.0513179,33.5194616 L22.3222594,24.2787336 C22.7057615,23.6066126 23.3108376,23.2211727 23.9830148,23.2211727 C24.6551921,23.2211727 25.2602681,23.6066126 25.6437703,24.2787336 L26.3366837,25.4933256 C26.3425085,25.5026866 26.3481002,25.5122817 26.352993,25.5221107 L30.9277592,33.541928 C31.2415973,33.2039953 31.6887058,32.9924363 32.1840434,32.9924363 C33.1313823,32.9924363 33.9023474,33.7668264 33.9023474,34.7183738 C33.9023474,34.8587891 33.8855721,34.9952259 33.8538854,35.1258121 C34.1977793,35.5837998 35.1059758,36.8594724 35.9323927,38.586346 C35.8871925,37.8423792 35.8583017,36.975783 35.8587677,35.9757924 C35.8599327,33.0113924 36.4062951,29.9360643 36.7923602,28.1317282 L32.9717839,32.2821691 C32.8795197,32.382098 32.7469481,32.4340516 32.6136776,32.4321794 C32.4783102,32.4274989 32.3515635,32.363844 32.266755,32.2578305 L26.3872426,24.9227716 C26.2649227,24.769953 26.2500113,24.5569899 26.3504301,24.3887256 C26.450616,24.2206953 26.6428331,24.1322337 26.8364481,24.1692097 L37.5651893,26.2000824 C37.620641,26.1942317 37.6784226,26.1979761 37.7362042,26.2134218 C37.984572,26.2803531 38.1322879,26.536845 38.0656526,26.7865501 C38.0528382,26.8342913 36.7928262,31.6130904 36.7909622,35.9760264 C36.7888653,40.2912212 37.3515371,42.0333065 37.3571289,42.0503904 C37.3932424,42.1587441 37.3876506,42.2710763 37.3492072,42.3698351 C37.7035856,43.5221762 37.9184027,44.4004737 38.03117,44.9043304 C39.1816766,44.6227978 42.2399083,43.7068223 44.6359815,41.485453 C45.6247926,40.5685414 46.2189181,39.6989029 46.5725975,38.9490854 L37.6635112,17.6757063 C37.42656,17.3398798 35.2988918,14.4693239 31.5673178,14.0944152 C27.9892845,13.7349522 26.8942297,15.55567 26.7432519,15.8465636 C26.6959549,16.1917511 26.4795068,17.0080318 25.4899966,17.3962799 C25.0084055,17.5853725 24.632825,17.4924644 24.4026305,17.3815363 C24.244663,17.3054781 24.1123245,17.2018048 24.002819,17.0890045 C23.8926146,17.203209 23.7593441,17.3085204 23.5992797,17.3855148 C23.2691323,17.5446521 22.8928528,17.5495666 22.5119135,17.4002584 C21.5116858,17.0077977 21.3015285,16.1781776 21.2572603,15.8397768 C21.1074475,15.5516915 20.0119267,13.7316758 16.4345924,14.0906708 C12.7037173,14.4646434 10.5762821,17.332859 10.3377,17.6712598 L1.42605079,38.9500215 Z M16.5634361,36.2713665 C17.0783448,36.9701664 18.2442287,38.3773613 19.9345739,39.4070732 C21.9245448,40.6195589 23.5240238,41.2408964 24.0000231,41.4138412 C24.4757895,41.2411304 26.0752685,40.6195589 28.0652394,39.4070732 C29.7555846,38.3773613 30.9214685,36.9701664 31.4366102,36.2713665 C30.9137798,36.0167469 30.5379663,35.5032951 30.4748259,34.8978713 L17.5252204,34.8978713 C17.462313,35.5032951 17.0864995,36.0167469 16.5634361,36.2713665 Z M0.959837033,36.5117106 C0.93956687,36.6263831 0.888541976,37.012291 0.985931956,37.5868234 L9.49730368,17.2635875 C9.50848722,17.2369086 9.52223365,17.2111658 9.538077,17.1870612 C9.63430203,17.0407953 11.9446347,13.6003875 16.3409302,13.1587816 C19.9131388,12.8000206 21.4243144,14.4037968 21.9238458,15.1444873 C22.259585,15.0705353 22.7637762,14.9963492 23.1868867,15.0873851 C23.5282176,15.1608691 23.8024473,15.3359201 24.00212,15.5083968 C24.2013268,15.3370902 24.4739256,15.1641454 24.8126936,15.0913635 C25.2358041,15.0000936 25.7397623,15.0742797 26.0757345,15.1484657 C26.5754988,14.4077753 28.0866745,12.803297 31.658883,13.16276 C36.0549456,13.604366 38.3655112,17.0450078 38.4617363,17.1912737 C38.4775796,17.2156123 38.4913261,17.2411211 38.5025096,17.2678 L47.0113184,37.5847172 C47.1094074,37.0085466 47.0590815,36.6221706 47.0399762,36.5117106 L38.6667678,17.0894726 C38.6339162,17.0136484 38.6220337,16.9305693 38.6315863,16.8486604 C38.637178,16.7992811 39.1660662,11.7955835 35.8114707,6.85741299 C33.0032376,2.72358789 27.8683625,2.21341247 26.3324899,2.15490611 L26.3324899,12.6191189 C27.3988869,11.8585363 29.4366208,10.6753038 31.7113059,10.7651695 C34.9608228,10.8920113 37.6399792,13.4555258 37.7527465,13.5645817 C37.9377409,13.7440792 37.9426337,14.0401213 37.7643961,14.2259375 C37.5859254,14.4119877 37.2911926,14.4176043 37.1057322,14.2383409 C37.0808023,14.2140022 34.5645061,11.8133694 31.6751924,11.7005691 C28.7940333,11.5929175 26.2048111,13.9039185 26.1787162,13.927087 C26.0417179,14.0508865 25.844841,14.0817778 25.6773209,14.0071237 C25.5091018,13.9320016 25.4005283,13.7644394 25.4005283,13.5795593 L25.4005283,1.68100462 C25.4005283,1.65760208 25.4023923,1.63466759 25.4054211,1.61220115 L25.4054211,0.936101698 L22.5939262,0.936101698 L22.5939262,1.61126505 C22.597421,1.63396551 22.599052,1.65713403 22.599052,1.6807706 L22.599052,13.5793253 C22.599052,13.7642053 22.4904784,13.9315335 22.3222594,14.0068897 C22.1540403,14.0820119 21.9573964,14.0506525 21.8206311,13.926853 C21.7950021,13.9034505 19.2074109,11.588471 16.3243879,11.7003351 C13.4350742,11.8129014 10.918778,14.2137682 10.8936151,14.2381068 C10.7086207,14.4171363 10.4134219,14.4119877 10.2349512,14.2257035 C10.0564806,14.0396533 10.0616064,13.7438451 10.2466008,13.5643476 C10.3591351,13.4552918 13.0382915,10.8917773 16.2880414,10.7649355 C18.5596977,10.6731975 20.6002274,11.8583023 21.6666244,12.6186509 L21.6666244,2.15467208 C20.1312178,2.21294441 14.9961097,2.72311984 12.1876436,6.85717896 C8.83398006,11.7953494 9.36263524,16.799047 9.36822701,16.8491285 C9.37777961,16.9308034 9.36543112,17.0138824 9.33304546,17.0892386 L0.959837033,36.5117106 Z M32.1838104,33.9276019 C31.7502153,33.9276019 31.3974678,34.2819164 31.3974678,34.7174377 C31.3974678,35.152959 31.7502153,35.5072735 32.1838104,35.5072735 C32.6174055,35.5072735 32.9701529,35.152959 32.9701529,34.7174377 C32.9701529,34.2819164 32.6174055,33.9276019 32.1838104,33.9276019 Z M15.8162359,33.9276019 C15.3826408,33.9276019 15.0298933,34.2819164 15.0298933,34.7174377 C15.0298933,35.152959 15.3826408,35.5072735 15.8162359,35.5072735 C16.249831,35.5072735 16.6025784,35.152959 16.6025784,34.7174377 C16.6025784,34.2819164 16.249831,33.9276019 15.8162359,33.9276019 Z M28.3464587,33.9620036 L30.0934206,33.9620036 L28.3464587,30.8993129 L28.3464587,33.9620036 Z M26.4063478,33.9620036 L27.4144972,33.9620036 L27.4144972,29.2730702 C27.4144972,29.2704959 27.4144972,29.2681557 27.4144972,29.2655814 L26.4063478,27.4979874 L26.4063478,33.9620036 Z M24.4660039,33.9620036 L25.4743863,33.9620036 L25.4743863,25.8642559 L24.8350607,24.7432741 C24.7320789,24.5626065 24.6060311,24.4193829 24.4660039,24.3194541 L24.4660039,33.9620036 Z M22.52566,33.9620036 L23.5340424,33.9620036 L23.5340424,24.2962855 C23.3805017,24.3964484 23.2423384,24.5480969 23.130969,24.7432741 L22.5219321,25.8108981 C22.524495,25.8307903 22.525893,25.8509164 22.525893,25.8715107 L22.525893,33.9620036 L22.52566,33.9620036 Z M20.5855491,33.9620036 L21.5939314,33.9620036 L21.5939314,27.4380769 L20.5818212,29.2126917 C20.5843841,29.2325838 20.585782,29.25271 20.585782,29.2733043 L20.585782,33.9620036 L20.5855491,33.9620036 Z M17.872609,33.9620036 L19.6535875,33.9620036 L19.6535875,30.8396364 L17.872609,33.9620036 Z M27.904942,25.3234231 L32.653519,31.2475427 L36.5931534,26.9679198 L27.904942,25.3234231 Z M11.4071259,26.9681538 L15.3467603,31.2477768 L20.0953373,25.3236572 L11.4071259,26.9681538 Z M22.2733314,16.0293374 C22.3611688,16.2027503 22.5293878,16.4019059 22.8502156,16.5278116 C23.034511,16.5998914 23.1353958,16.5699362 23.1955073,16.540917 C23.3033819,16.4889634 23.3921512,16.3782693 23.4555246,16.274362 C23.3469511,16.1678805 23.1854887,16.044081 22.9918737,16.0024245 C22.7898711,15.9591298 22.5114476,15.9865108 22.2733314,16.0293374 Z M24.5475505,16.2755322 C24.6113899,16.3794395 24.6996933,16.4875592 24.8066358,16.5381087 C24.8665144,16.5661918 24.9669332,16.5954449 25.1498307,16.5238331 C25.4655326,16.3997997 25.6335187,16.2046225 25.722521,16.0323798 C25.4743863,15.988383 25.1999236,15.9652145 25.0081725,16.0061689 C24.8166544,16.0475914 24.656357,16.1692846 24.5475505,16.2755322 Z M31.3466759,23.6861813 C30.4305577,23.6861813 29.5188664,23.6031022 28.7197093,23.379842 C27.2085337,22.9581282 26.2882217,21.8813772 26.0587262,20.2658997 C26.0400869,20.1357816 26.0286704,19.9965364 26.0247096,19.8521427 C25.9825383,18.3059368 26.8765224,16.8196413 28.3017246,16.0653773 C29.407497,15.4800798 30.6768286,15.1831015 32.0745379,15.1831015 C35.9305287,15.1831015 37.3482752,18.4236515 37.4305208,19.993026 C37.5013499,21.3438208 36.8242799,23.0442495 34.6844962,23.3908412 C33.7208479,23.5471702 32.5300341,23.6861813 31.3466759,23.6861813 Z M32.0745379,16.1194372 C30.8296703,16.1194372 29.7066566,16.3799075 28.7362517,16.8938273 C27.6225576,17.4833374 26.9238195,18.6345085 26.9559721,19.8263999 C26.959234,19.9349877 26.9676217,20.038427 26.9809021,20.1334413 C26.9809021,20.1334413 26.9809021,20.1334413 26.9809021,20.1336753 C27.1568098,21.3702657 27.8254922,22.1589313 28.9687761,22.477908 C30.7269215,22.9684253 33.211065,22.6815101 34.5360813,22.4669088 C36.4596499,22.155421 36.5253532,20.5324546 36.4999572,20.0426394 C36.456621,19.2139554 35.5777813,16.1194372 32.0745379,16.1194372 Z M16.6533703,23.6861813 C15.4697792,23.6861813 14.2794313,23.5471702 13.3153171,23.3910752 C11.1753004,23.0444836 10.4986964,21.3440548 10.5695254,19.9932601 C10.651771,18.4238856 12.0692845,15.1833355 15.9255084,15.1833355 C17.3229847,15.1833355 18.5923163,15.4800798 19.6983217,16.0656114 C21.1237568,16.8201093 22.017508,18.3061708 21.9753367,19.8521427 C21.9713759,19.9958343 21.9601923,20.1350795 21.9415531,20.2661337 C21.7118246,21.8818452 20.7915126,22.9585962 19.2803369,23.38031 C18.4811799,23.6028682 17.5692555,23.6861813 16.6533703,23.6861813 Z M15.9255084,16.1194372 C12.422032,16.1194372 11.5436582,19.2139554 11.500089,20.0424054 C11.4744601,20.5324546 11.5401634,22.1551869 13.463732,22.4666748 C14.7887483,22.6815101 17.2738237,22.9684253 19.0310372,22.477674 C20.174321,22.1586973 20.8430034,21.3700316 21.0189112,20.1334413 C21.0324246,20.0379589 21.0408123,19.9345197 21.0438411,19.8261659 C21.0762268,18.6340404 20.3777216,17.4828693 19.2640276,16.8935933 C18.2931567,16.3799075 17.16991,16.1194372 15.9255084,16.1194372 Z M25.1878081,22.3037931 L22.8120052,22.3037931 C22.5547838,22.3037931 22.3460244,22.0941063 22.3460244,21.8357422 C22.3460244,21.5773782 22.5547838,21.3676914 22.8120052,21.3676914 L25.1878081,21.3676914 C25.4450295,21.3676914 25.6537889,21.5773782 25.6537889,21.8357422 C25.6537889,22.0941063 25.4452625,22.3037931 25.1878081,22.3037931 Z M24.7346418,20.8886413 L23.2654045,20.8886413 C23.0081831,20.8886413 22.7994237,20.6789546 22.7994237,20.4205905 C22.7994237,20.1622264 23.0081831,19.9525396 23.2654045,19.9525396 L24.7346418,19.9525396 C24.9918632,19.9525396 25.2006226,20.1622264 25.2006226,20.4205905 C25.2006226,20.6789546 24.9920962,20.8886413 24.7346418,20.8886413 Z M24.7346418,19.4533634 L23.2654045,19.4533634 C23.0081831,19.4533634 22.7994237,19.2436766 22.7994237,18.9853126 C22.7994237,18.7269485 23.0081831,18.5172617 23.2654045,18.5172617 L24.7346418,18.5172617 C24.9918632,18.5172617 25.2006226,18.7269485 25.2006226,18.9853126 C25.2006226,19.2436766 24.9920962,19.4533634 24.7346418,19.4533634 Z"></path>
        </g>
    </g>
</svg>
